<svg width="580" height="400" xmlns="http://www.w3.org/2000/svg">
 <!-- Created with Method Draw - http://github.com/duopixel/Method-Draw/ -->

 <g>
  <title>background</title>
  <rect fill="#fff" id="canvas_background" height="402" width="582" y="-1" x="-1"/>
  <g display="none" overflow="visible" y="0" x="0" height="100%" width="100%" id="canvasGrid">
   <rect fill="url(#gridpattern)" stroke-width="0" y="0" x="0" height="100%" width="100%"/>
  </g>
 </g>
 <g>
  <title>Layer 1</title>
  <g id="svg_9">
   <path id="svg_4" d="m280.833259,200.858602l2.188193,1.263354l-2.188193,1.263354l-2.188193,-1.263354l2.188193,-1.263354z" fill="#2366d1"/>
   <path id="svg_5" d="m280.833259,199.595249l2.188193,1.263354l-2.188193,1.263354l-2.188193,-1.263354l2.188193,-1.263354z" fill="#609dff"/>
   <path id="svg_6" d="m280.833259,198.331895l2.188193,1.263354l-2.188193,1.263354l-2.188193,-1.263354l2.188193,-1.263354z" fill="#a4c7ff"/>
   <g id="svg_7" fill="#333" transform="matrix(0.013817933269972875,0,0,0.013817933269972875,5.921971502267525,1.099414003371824) ">
    <path id="svg_8" d="m20779.353283,14363.464351l0,126.976a60.705,60.705 0 0 0 0.066,2.839q0.599,12.792 6.648,23.261a50.135,50.135 0 0 0 1.094,1.804a51.598,51.598 0 0 0 2.866,4.065q6.795,8.712 17.2,14.264a63.11,63.11 0 0 0 1.694,0.871a61.649,61.649 0 0 0 4.913,2.172q11.098,4.341 24.477,4.706a90.809,90.809 0 0 0 2.482,0.034a90.563,90.563 0 0 0 2.776,-0.042q14.676,-0.45 26.596,-5.701a61.259,61.259 0 0 0 2.5,-1.169q13.952,-6.912 21.888,-19.2a49.502,49.502 0 0 0 2.234,-3.821q5.308,-10.096 5.675,-22.263a60.335,60.335 0 0 0 0.027,-1.82l0,-126.976a10.857,10.857 0 0 1 0.038,-0.925q0.251,-2.931 2.138,-4.707a7.256,7.256 0 0 1 2.725,-1.627q1.271,-0.421 2.779,-0.421q2.252,0 3.898,0.809a6.472,6.472 0 0 1 1.734,1.239q1.831,1.831 2.025,4.891a11.729,11.729 0 0 1 0.023,0.741l0,126.976q0,19.591 -9.249,34.978a64.077,64.077 0 0 1 -0.607,0.99q-9.856,15.744 -27.392,24.576q-16.224,8.171 -36.501,8.783a109.71,109.71 0 0 1 -3.307,0.049q-22.272,0 -39.808,-8.832a77.835,77.835 0 0 1 -2.692,-1.422q-13.865,-7.677 -22.491,-19.992a65.778,65.778 0 0 1 -2.081,-3.162q-9.728,-15.744 -9.728,-35.968l0,-126.976a10.857,10.857 0 0 1 0.038,-0.925q0.251,-2.931 2.138,-4.707a7.256,7.256 0 0 1 2.725,-1.627q1.271,-0.421 2.779,-0.421q2.252,0 3.898,0.809a6.472,6.472 0 0 1 1.734,1.239q1.831,1.831 2.025,4.891a11.729,11.729 0 0 1 0.023,0.741zm281.6,-1.28a69.507,69.507 0 0 0 -0.608,-0.345q-15.371,-8.615 -33.696,-8.615a100.005,100.005 0 0 0 -2.394,0.028q-16.448,0.394 -29.222,6.244a61.75,61.75 0 0 0 -1.49,0.707q-12.622,6.193 -19.758,16.957q-7.552,11.392 -7.552,26.24q0,19.521 14.407,33.483a59.222,59.222 0 0 0 1.849,1.717a60.63,60.63 0 0 0 2.656,2.23q15.047,11.92 39.379,15.923a133.91,133.91 0 0 0 2.637,0.407q22.42,3.068 34.723,12.989a41.61,41.61 0 0 1 2.013,1.731a43.592,43.592 0 0 1 0.848,0.799q11.568,11.198 11.568,28.001q0,20.224 -12.672,31.232a39.281,39.281 0 0 1 -4.456,3.346q-11.198,7.232 -28.189,7.638a85.481,85.481 0 0 1 -2.043,0.024a102.18,102.18 0 0 1 -2.188,-0.023q-15.733,-0.337 -27.646,-5.561a55.097,55.097 0 0 1 -3.062,-1.456a56.619,56.619 0 0 1 -1.526,-0.814q-10.792,-5.971 -17.126,-15.728a47.528,47.528 0 0 1 -1.956,-3.298a12.115,12.115 0 0 0 -0.176,-0.356q-2.074,-4.032 -6.237,-4.458a9.942,9.942 0 0 0 -1.011,-0.05a12.194,12.194 0 0 0 -0.343,0.005q-3.346,0.094 -5.417,2.043a7.449,7.449 0 0 0 -0.681,0.731q-1.185,1.46 -1.431,3.363a8.003,8.003 0 0 0 -0.064,1.026a6.218,6.218 0 0 0 0.084,1.017q0.095,0.571 0.296,1.143a7.895,7.895 0 0 0 0.388,0.912a65.044,65.044 0 0 0 0.707,1.354q7.992,14.873 22.956,24.069a74.4,74.4 0 0 0 2.705,1.585q17.664,9.856 41.728,9.856q16.06,0 28.811,-5.105a62.036,62.036 0 0 0 4.085,-1.807q14.208,-6.912 22.016,-19.968a51.186,51.186 0 0 0 2.133,-3.951q5.675,-11.71 5.675,-26.769a72.811,72.811 0 0 0 -0.03,-2.102q-0.586,-20.293 -12.589,-33.599a49.8,49.8 0 0 0 -2.229,-2.315q-14.848,-14.464 -47.104,-19.84a157.882,157.882 0 0 1 -1.81,-0.312q-23.204,-4.146 -34.542,-13.512a41.218,41.218 0 0 1 -0.927,-0.789q-10.849,-9.515 -10.849,-23.275a49.293,49.293 0 0 1 0,-0.134q0.047,-17.056 11.904,-26.618a35.234,35.234 0 0 1 0.859,-0.671q11.227,-8.495 30.322,-8.908a91.194,91.194 0 0 1 1.971,-0.021a73.044,73.044 0 0 1 0.853,0.005q26.71,0.312 41.477,20.228a59.37,59.37 0 0 1 1.446,2.039q2.26,3.39 6.116,3.787a10.261,10.261 0 0 0 1.052,0.053a14.543,14.543 0 0 0 0.615,-0.013q1.593,-0.067 2.457,-0.499a10.655,10.655 0 0 0 0.136,-0.069q1.012,-0.525 1.799,-1.21a7.607,7.607 0 0 0 1.265,-1.409q0.797,-1.15 1.042,-2.485a6.761,6.761 0 0 0 0.11,-1.227q0,-2.304 -1.024,-4.096q-7.424,-12.544 -23.04,-21.504zm-735.177,-8.892a110.648,110.648 0 0 0 -3.895,-0.068q-24.851,0 -46.014,11.483a99.343,99.343 0 0 0 -4.29,2.469a109.009,109.009 0 0 0 -1.569,0.974q-19.866,12.563 -32.403,32.553a111.393,111.393 0 0 0 -2.38,3.977q-13.44,23.552 -13.44,50.944q0,24.931 11.24,46.787a107.592,107.592 0 0 0 2.328,4.285q13.568,23.68 36.608,37.632a103.444,103.444 0 0 0 1.586,0.941q22.377,13.011 48.334,13.011q40.96,0 62.976,-22.016q1.526,-1.744 1.753,-4.416a11.364,11.364 0 0 0 0.039,-0.96q0,-2.758 -1.67,-4.812a8.614,8.614 0 0 0 -0.762,-0.82a10.501,10.501 0 0 0 -0.114,-0.107q-2.39,-2.197 -5.39,-2.197a6.244,6.244 0 0 0 -1.699,0.233q-0.643,0.18 -1.258,0.502a7.508,7.508 0 0 0 -0.883,0.545q-22.784,18.688 -52.992,18.688q-20.651,0 -38.673,-9.674a87.237,87.237 0 0 1 -3.695,-2.102q-19.584,-11.776 -30.976,-31.872q-10.368,-18.29 -11.3,-39.444a95.549,95.549 0 0 1 -0.092,-4.204q0,-22.784 11.52,-42.88a97.348,97.348 0 0 1 0.15,-0.26q11.497,-19.914 30.954,-31.868a88.056,88.056 0 0 1 2.851,-1.679q16.508,-9.307 35.063,-10.247a82.911,82.911 0 0 1 4.198,-0.106a117.212,117.212 0 0 1 0.401,0.001q23.367,0.08 40.012,9.487a63.01,63.01 0 0 1 11.043,7.92a23.034,23.034 0 0 0 0.467,0.39q3.302,2.682 5.933,2.682a9.974,9.974 0 0 0 0.639,-0.02q2.432,-0.156 4.098,-1.524a6.873,6.873 0 0 0 0.895,-0.888a9.994,9.994 0 0 0 0.229,-0.282q1.819,-2.327 1.819,-5.222a8.988,8.988 0 0 0 -0.023,-0.645q-0.205,-2.861 -2.281,-4.475a110.881,110.881 0 0 0 -0.105,-0.087q-25.857,-21.453 -59.232,-22.629zm390.857,198.332l-47.104,-75.264l-4.608,0l-41.216,0l0,71.68q0,3.328 -2.048,5.504q-1.96,2.083 -5.327,2.172a11.487,11.487 0 0 1 -0.305,0.004q-3.108,0 -5.211,-1.898a7.871,7.871 0 0 1 -0.293,-0.278a7.525,7.525 0 0 1 -0.874,-1.045q-1.293,-1.872 -1.302,-4.425a10.179,10.179 0 0 1 0,-0.034l0,-184.576a10.857,10.857 0 0 1 0.038,-0.925q0.251,-2.931 2.138,-4.707a7.256,7.256 0 0 1 2.725,-1.627q1.271,-0.421 2.779,-0.421l48.896,0q18.432,0 33.024,7.68q13.474,7.092 21.491,19.422a58.968,58.968 0 0 1 1.293,2.082a56.737,56.737 0 0 1 5.15,11.386q3.042,9.338 3.042,20.102q0,18.968 -9.51,33.233a56.692,56.692 0 0 1 -2.138,2.991a58.849,58.849 0 0 1 -2.596,3.162q-10.591,12.019 -26.959,17.161a72.195,72.195 0 0 1 -1.805,0.541l44.032,70.4q2.048,3.584 2.048,5.888a6.599,6.599 0 0 1 -0.05,0.828q-0.225,1.772 -1.443,2.959a5.625,5.625 0 0 1 -0.683,0.565a6.473,6.473 0 0 1 -0.805,0.483q-2.075,1.053 -5.467,1.053q-2.329,0 -3.81,-0.847a4.911,4.911 0 0 1 -0.286,-0.177q-1.33,-0.887 -2.469,-2.542a14.447,14.447 0 0 1 -0.347,-0.53zm-152.064,-0.768l-18.944,-45.312l-104.192,0l-18.944,45.312q-1.7,4.616 -6.628,4.851a11.297,11.297 0 0 1 -0.54,0.013a10.258,10.258 0 0 1 -0.925,-0.041q-2.788,-0.252 -4.531,-2.072a6.997,6.997 0 0 1 -0.176,-0.191a8.678,8.678 0 0 1 -0.747,-0.968q-1.301,-1.96 -1.301,-4.408a7.805,7.805 0 0 1 0.106,-1.295a7.181,7.181 0 0 1 0.662,-2.033l77.568,-183.552a12.196,12.196 0 0 1 0.34,-0.807q1.953,-4.193 6.288,-4.538a10.038,10.038 0 0 1 0.796,-0.031a9.004,9.004 0 0 1 1.011,0.055q4.343,0.491 6.413,5.321l77.824,183.552q0.768,1.536 0.768,3.328a7.64,7.64 0 0 1 -0.106,1.285q-0.389,2.282 -2.198,4.091a9.044,9.044 0 0 1 -0.777,0.694q-1.788,1.417 -3.992,1.587a7.908,7.908 0 0 1 -0.607,0.023a9.93,9.93 0 0 1 -0.933,-0.043q-4.379,-0.413 -6.235,-4.821zm-383.744,-187.392l0,184.576q0,3.108 -1.898,5.211a7.871,7.871 0 0 1 -0.278,0.293a7.525,7.525 0 0 1 -1.045,0.874q-1.872,1.293 -4.425,1.302a10.179,10.179 0 0 1 -0.034,0q-3.108,0 -5.211,-1.898a7.871,7.871 0 0 1 -0.293,-0.278a7.525,7.525 0 0 1 -0.874,-1.045q-1.293,-1.872 -1.302,-4.425a10.179,10.179 0 0 1 0,-0.034l0,-184.576q0,-3.108 1.898,-5.211a7.871,7.871 0 0 1 0.278,-0.293a7.525,7.525 0 0 1 1.045,-0.874q1.872,-1.293 4.425,-1.302a10.179,10.179 0 0 1 0.034,0q3.108,0 5.211,1.898a7.871,7.871 0 0 1 0.293,0.278a7.525,7.525 0 0 1 0.874,1.045q1.293,1.872 1.302,4.425a10.179,10.179 0 0 1 0,0.034zm266.496,128.256l92.416,0l-46.336,-110.592l-46.08,110.592zm176.384,-30.72l41.216,0q10.962,0 20.063,-3.414a48.175,48.175 0 0 0 5.025,-2.218a47.471,47.471 0 0 0 2.515,-1.383q7.691,-4.542 12.819,-11.578a43.678,43.678 0 0 0 1.946,-2.911q5.612,-9.163 6.203,-20.376a50.673,50.673 0 0 0 0.069,-2.664q0,-13.056 -6.272,-23.424q-6.272,-10.368 -17.28,-16.128q-11.008,-5.76 -25.088,-5.76l-41.216,0l0,89.856z"/>
   </g>
  </g>
  <rect id="svg_12" height="4.683434" width="19.68777" y="198.516885" x="283.607963" stroke-width="0" fill="#fff"/>
  <text font-weight="normal" stroke="#000" transform="matrix(1,0,0,1.1832525640627862,0,-45.917951653378275) " xml:space="preserve" text-anchor="start" font-family="'Courier New', Courier, monospace" font-size="4" id="svg_10" y="209.842936" x="283.954886" stroke-width="0" fill="#000000">Volcano</text>
 </g>
</svg>